<svg viewBox="0 0 317.5 317.5" height="1200" width="1200" xmlns="http://www.w3.org/2000/svg"><g style="display:inline;fill-opacity:1;fill:none"><path style="opacity:1;fill-opacity:1;stroke:none;stroke-width:5.09747744;stroke-linecap:round;stroke-linejoin:round;stroke-miterlimit:4;stroke-dasharray:none;stroke-opacity:1;fill:none" d="M-31.75-9.917h317.5v317.5h-317.5z" transform="translate(31.75 9.917)"/></g><g transform="rotate(-42.634 197.117 259.786)" style="display:inline"/><g style="display:inline"><path style="color:#000;font-style:normal;font-variant:normal;font-weight:400;font-stretch:normal;font-size:medium;line-height:normal;font-family:sans-serif;font-variant-ligatures:normal;font-variant-position:normal;font-variant-caps:normal;font-variant-numeric:normal;font-variant-alternates:normal;font-feature-settings:normal;text-indent:0;text-align:start;text-decoration:none;text-decoration-line:none;text-decoration-style:solid;text-decoration-color:#000;letter-spacing:normal;word-spacing:normal;text-transform:none;writing-mode:lr-tb;direction:ltr;text-orientation:mixed;dominant-baseline:auto;baseline-shift:baseline;text-anchor:start;white-space:normal;shape-padding:0;clip-rule:nonzero;display:inline;overflow:visible;visibility:visible;opacity:1;isolation:auto;mix-blend-mode:normal;color-interpolation:sRGB;color-interpolation-filters:linearRGB;solid-color:#000;solid-opacity:1;vector-effect:none;fill:#000;fill-opacity:1;fill-rule:nonzero;stroke:none;stroke-width:3.46882248;stroke-linecap:butt;stroke-linejoin:miter;stroke-miterlimit:4;stroke-dasharray:none;stroke-dashoffset:0;stroke-opacity:1;color-rendering:auto;image-rendering:auto;shape-rendering:auto;text-rendering:auto" d="m334.246 24.27-1.401.345c-29.917 7.37-52.084 14.852-64.011 35.054l-.733 1.241 1.086.948c7.36 6.422 12.78 12.418 20.421 14.877l.066.04.21.064q.094.03.027.008.51.155 1.012.283l.168.043a23 23 0 0 0 2.263.443l.203.027q.539.075 1.116.126h.001l.016.002q.578.048 1.144.07l.194.008a26 26 0 0 0 1.38.006q.572-.01 1.172-.046l.186-.013a30 30 0 0 0 2.621-.292l.174-.026a37 37 0 0 0 1.565-.283q.658-.133 1.337-.293l.213-.052q.707-.17 1.452-.375h.001q-.017.005.005-.002h.002l.013-.004q.762-.212 1.538-.455.043-.012.151-.046a58 58 0 0 0 2.639-.905c.198-.072.413-.147.654-.238a74 74 0 0 0 1.968-.773l.593-.244.292-.57a516 516 0 0 1 2.387-4.597c.261-.497.513-.965.776-1.461.498-.94.992-1.87 1.466-2.749.283-.525.558-1.03.836-1.541a390 390 0 0 1 2.117-3.838q.546-.973 1.07-1.895c.274-.484.548-.969.81-1.422.353-.615.693-1.199 1.034-1.781.244-.418.492-.847.72-1.232a252 252 0 0 1 2.352-3.894v-.001c.205-.332.412-.672.6-.972.267-.43.52-.827.778-1.235.202-.318.404-.639.592-.931q.397-.62.773-1.195.175-.27.34-.521.432-.659.83-1.255l.2-.298v-.001q.388-.578.741-1.098h.001c.24-.352.436-.631.666-.965 1-1.449 1.826-2.623 2.451-3.551a35 35 0 0 0 .583-.893q.234-.373.433-.728l.01-.016c.801-1.444 1.038-3.057.596-4.471s-1.229-2.727-2.306-5.112zm-1.96 4.071c.662 1.395 1.379 2.846 1.55 3.391.236.759.256.717-.319 1.752q.088-.157-.008.012h.001q-.142.253-.342.573l-.054.086a31 31 0 0 1-.466.712c-.59.876-1.42 2.056-2.43 3.519-.221.32-.423.608-.677.982h-.001q-.364.534-.755 1.119l-.204.304c-.271.405-.554.834-.846 1.278l-.347.53q-.38.584-.786 1.217c-.197.307-.403.633-.603.948-.257.406-.514.811-.79 1.255-.201.322-.411.666-.61.988q-.616 1-1.278 2.098c-.36.597-.723 1.201-1.108 1.851-.24.406-.49.838-.728 1.247-.341.584-.686 1.176-1.047 1.803a340 340 0 0 0-4.035 7.226c-.277.509-.556 1.018-.844 1.553-.48.893-.977 1.827-1.477 2.77-.257.485-.51.958-.781 1.472a533 533 0 0 0-2.1 4.044c-.434.173-.87.348-1.294.508-.191.073-.393.144-.621.227a61 61 0 0 1-2.489.853l-.141.044a48 48 0 0 1-1.448.427h.003l-.009.002q-.675.186-1.34.347l-.198.048q-.621.147-1.223.268l-.235.046q-.608.12-1.183.21l-.156.023a30 30 0 0 1-1.197.16q.023-.001-.012.002-.566.061-1.128.099l-.164.011q-.516.032-1.027.042l-.219.003q-.506.005-.98-.01-.037 0-.167-.007-.513-.019-.983-.059h-.001l-.013-.001h-.001a20 20 0 0 1-.952-.108l-.174-.024a20 20 0 0 1-1.92-.375l-.141-.036a19 19 0 0 1-.859-.24l-.023-.007h-.003c-6.264-1.931-11.337-7.101-18.313-13.279 11.145-17.701 31.328-24.848 59.696-31.904" transform="translate(-77.973)"/><path d="M312.441 72.447c24.165-47.128 26.131-34.392 20.818-46.148-29.843 7.353-51.388 14.7-62.932 34.252 13.374 11.669 19.821 21.04 42.114 11.896" style="fill:#955c37;fill-opacity:1;stroke:none;stroke-width:.43680882px;stroke-linecap:butt;stroke-linejoin:miter;stroke-opacity:1" transform="translate(-77.973)"/><path style="fill:#e9c6af;fill-opacity:1;stroke:none;stroke-width:.43680882px;stroke-linecap:butt;stroke-linejoin:miter;stroke-opacity:1" d="M335.034 34.326c-22.807 10.698-38.985 21.411-45.99 40.023.463.28.9.555 1.35.832 5.59 1.722 12.306 1.261 22.048-2.734 14.123-27.545 20.655-34.633 22.592-38.12" transform="translate(-77.973)"/><path style="fill:#5e2f20;fill-opacity:1;stroke:none;stroke-width:.99999994px;stroke-linecap:butt;stroke-linejoin:miter;stroke-opacity:1" d="M1098.635 155.346c-32.312 18.403-58.128 41.674-76.924 73.51 7.998 6.978 15.302 13.685 22.33 19.986 8.62-34.08 31.26-63.052 54.594-93.496" transform="translate(-77.973)scale(.26458)"/><path style="fill:#dd9a80;fill-opacity:1;stroke:none;stroke-width:.99999994px;stroke-linecap:butt;stroke-linejoin:miter;stroke-opacity:1" d="M1266.27 129.736c-31.216 14.642-59.126 29.3-83.313 45.371 17.894-10.753 51.308-22.402 57.91-20.92-17.085 32.826-41.479 78.715-60.894 109.069-12.652 10.99-22.169 16.868-33.377 21.619 10.266-2.24 21.596-5.856 34.285-11.06 53.38-104.108 78.07-130.898 85.389-144.079" transform="translate(-77.973)scale(.26458)"/></g><g style="display:inline"><path style="color:#000;font-style:normal;font-variant:normal;font-weight:400;font-stretch:normal;font-size:medium;line-height:normal;font-family:sans-serif;font-variant-ligatures:normal;font-variant-position:normal;font-variant-caps:normal;font-variant-numeric:normal;font-variant-alternates:normal;font-feature-settings:normal;text-indent:0;text-align:start;text-decoration:none;text-decoration-line:none;text-decoration-style:solid;text-decoration-color:#000;letter-spacing:normal;word-spacing:normal;text-transform:none;writing-mode:lr-tb;direction:ltr;text-orientation:mixed;dominant-baseline:auto;baseline-shift:baseline;text-anchor:start;white-space:normal;shape-padding:0;clip-rule:nonzero;display:inline;overflow:visible;visibility:visible;opacity:1;isolation:auto;mix-blend-mode:normal;color-interpolation:sRGB;color-interpolation-filters:linearRGB;solid-color:#000;solid-opacity:1;vector-effect:none;fill:#000;fill-opacity:1;fill-rule:nonzero;stroke:none;stroke-width:3.46882248;stroke-linecap:round;stroke-linejoin:round;stroke-miterlimit:4;stroke-dasharray:none;stroke-dashoffset:0;stroke-opacity:1;color-rendering:auto;image-rendering:auto;shape-rendering:auto;text-rendering:auto" d="M187.34 47.038c-43.917 0-78.775 28.773-82.24 71.424-.526.864-2.09 2.484-4.293 4.24-2.314 1.844-5.246 3.905-8.262 5.967-6.03 4.125-12.276 8.099-15.178 11.079a1.735 1.735 0 0 0 .294 2.662c3.12 2.037 6.035 3.483 8.656 4.824-3.357 2.883-7.089 6.573-11.072 11.41a1.735 1.735 0 0 0 1.264 2.835c4.757.207 8.501.317 12.165.42-1.496 2.196-3.013 4.552-4.551 7.282a1.735 1.735 0 0 0 1.495 2.586c19.259.176 44.495 1.722 61.853 5.538l-.131-.035c7.584 2.304 14.789 3.078 26.813 3.078 1.693 0 3.58-.018 5.534-.043 17.978 5.914 34.728 5.419 52.086-3.205 2.195-.368 4.228-.767 6.13-1.177l.082-.014.133-.03c.41-.088.802-.177 1.192-.264l1.036-.235c1.897-.436 3.689-.866 5.432-1.277 6.421-1.512 12.123-2.678 20.516-2.337a1.735 1.735 0 0 0 1.191-3.057c-3.293-2.786-6.572-5.064-8.881-6.963 1.315-.023 2.777-.016 4.334 0 3.314.037 6.981.08 10.333-.276a1.735 1.735 0 0 0 1.224-2.738c-2.028-2.817-6.203-5.112-10.05-7.436-1.923-1.162-3.75-2.27-5.068-3.212-.04-.028-.053-.046-.092-.074a30.3 30.3 0 0 0 5.555-2.047c1.324-.64 2.508-1.323 3.472-1.99.964-.666 1.697-1.212 2.248-2.103a1.74 1.74 0 0 0-.053-1.906c-5.789-8.276-9.93-11.618-15.378-16.428l.084-.124a1.74 1.74 0 0 0 .297-.996c-.347-22.338-5.865-41.176-17.154-54.48-11.289-13.306-28.323-20.898-51.015-20.898m0 3.469c21.928 0 37.768 7.176 48.371 19.673 10.516 12.394 15.89 30.211 16.306 51.769l-.618.917a1.735 1.735 0 0 0 .295 2.274c.325.285.66.574.951.832 5.291 4.679 8.971 7.687 14.119 14.79-.191.163-.166.18-.426.36-.777.537-1.827 1.147-3.009 1.719-2.363 1.143-5.278 2.124-7.636 2.316a1.735 1.735 0 0 0-1.55 2.113c.21.932.716 1.488 1.265 2.038.55.549 1.205 1.065 1.953 1.6 1.497 1.068 3.366 2.195 5.29 3.357 2.168 1.31 4.363 2.72 6.108 3.98-1.924.05-3.881.055-5.783.034-3.31-.036-6.325-.101-8.62.287a1.735 1.735 0 0 0-1.134 2.701c1.774 2.544 4.841 4.648 8.103 7.045-6.201.202-11.207 1.205-16.342 2.415-1.754.413-3.538.842-5.414 1.272l-1.018.231c-.393.088-.776.175-1.169.26l-.1.022-.032.005c-1.953.422-4.02.83-6.275 1.204a1.7 1.7 0 0 0-.494.161c-16.812 8.43-32.474 8.878-50.012 3.04a1.7 1.7 0 0 0-.572-.089c-2.043.028-3.996.046-5.744.046-11.878 0-18.593-.737-25.805-2.928a2 2 0 0 0-.131-.034c-16.983-3.733-40.577-5.246-59.562-5.54 1.578-2.622 3.14-5.034 4.638-7.075a1.735 1.735 0 0 0-1.356-2.76c-3.275-.08-7.44-.239-11.667-.404 3.738-4.23 7.213-7.488 10.23-9.897a1.735 1.735 0 0 0-.252-2.877c-2.646-1.444-5.644-2.85-8.702-4.65 2.907-2.365 7.977-5.775 12.957-9.182 3.039-2.078 6.022-4.17 8.466-6.118s4.352-3.63 5.345-5.508a1.7 1.7 0 0 0 .195-.68c3.098-41.19 36.248-68.72 78.832-68.72z"/><path style="opacity:1;fill:#955c37;fill-opacity:1;stroke:none;stroke-width:.69376451;stroke-linecap:round;stroke-linejoin:round;stroke-miterlimit:4;stroke-dasharray:none;stroke-opacity:1" d="M187.34 48.773c-44.942 0-79.912 30.393-80.788 75.05 9.787 5.66 10.466 12.32 10.466 13.622 0 1.366 3.2 15.128 2.306 31.044 6.057 1.038 14.552 2.719 18.876 3.578 12.197 5.065 19.125 6.547 35.953 6.547 12.076 0 31.846-.656 47.029-1.933 10.986-.924 18.06-2.831 24.673-4.378l-5.261-30.315 13.181-19.545c-.684-44.135-21.815-73.67-66.434-73.67"/><path style="opacity:1;fill:#e9c6af;fill-opacity:1;stroke:none;stroke-width:.69376451;stroke-linecap:round;stroke-linejoin:round;stroke-miterlimit:4;stroke-dasharray:none;stroke-opacity:1" d="M107.96 117.227c-.371 3.184-5.907 7.923-5.951 11.217 9.788 5.66 15.01 7.698 15.01 9.001 0 1.047-.741 14.615-1.49 28.045 5.857 1.01 11.08 2.031 15.287 2.866 3.61 1.5 7.568 2.682 11.786 3.608 11.617-8.207 23.873-25.129 31.661-32.78 8.013-4.544.436.113 12.23-6.131 0 0-2.132-28.053-8.539-31.333-29.825-3.983-48.186 5.226-69.993 15.507"/><path style="opacity:1;fill:#5f3b23;fill-opacity:1;stroke:none;stroke-width:.69376451;stroke-linecap:round;stroke-linejoin:round;stroke-miterlimit:4;stroke-dasharray:none;stroke-opacity:1" d="M107.118 117.966c0 4.77-23.059 17.395-28.508 22.992 3.874 2.53 7.686 4.225 10.807 5.928-3.739 2.986-8.115 7.13-12.833 12.86 5.99.26 11.01.426 15.31.53-2.018 2.75-4.129 5.974-6.26 9.757 19.443.178 44.889 1.724 62.505 5.642 11.618-8.207 18.336-20.515 26.124-28.166 8.013-4.544 2.082-2.081 13.875-8.325 0 0-3.777-25.858-10.184-29.138-21.066-4.854-60.505-.548-70.836 7.92"/><path style="opacity:1;fill:#e9c6af;fill-opacity:1;stroke:none;stroke-width:.69376451;stroke-linecap:round;stroke-linejoin:round;stroke-miterlimit:4;stroke-dasharray:none;stroke-opacity:1" d="M210.803 104.446c-6.407 3.28-9.778 26.929-9.778 26.929 11.794 6.244 4.912 3.265 12.925 7.81 6.01 5.904 14.682 17.328 23.668 26.01 4.037-.874 7.55-1.79 11.073-2.55l-.828-30.652c3.834-2.583 3.853-.613 3.811-4.292 0-3.183-2.53-3.26-2.74-6.292-4.803-13.264-29.873-19.842-38.131-16.963"/><path style="opacity:1;fill:#5f3b23;fill-opacity:1;stroke:none;stroke-width:.69376451;stroke-linecap:round;stroke-linejoin:round;stroke-miterlimit:4;stroke-dasharray:none;stroke-opacity:1" d="M210.258 110.74c-5.227 4.948-10.575 22.425-10.575 29.089 11.794 6.243 6.254 3.83 14.266 8.374 6.011 5.905 14.683 17.33 23.669 26.01 10.083-2.18 16.888-4.662 28.747-4.18-4.706-3.98-9.697-6.856-11.72-9.757 3.98-.673 12.037.148 18.443-.53-3.079-4.276-16.608-10.011-17.255-12.86 5.399-.439 12.188-4.209 13.252-5.928-5.762-8.238-9.713-11.352-15.29-16.286-5.612-4.962-13.799-11.76-18.14-13.265-9.53-3.302-20.388-5.409-25.397-.667"/><g transform="translate(126.453 -155.365)scale(1.31105)" style="fill:#e9c6af;fill-opacity:1"><circle r="10.927" cy="219.16" cx="28.409" style="opacity:1;fill:#e9c6af;fill-opacity:1;stroke:none;stroke-width:.52916664;stroke-linecap:round;stroke-linejoin:round;stroke-miterlimit:4;stroke-dasharray:none;stroke-opacity:1"/><circle style="opacity:1;fill:#e9c6af;fill-opacity:1;stroke:none;stroke-width:.52916664;stroke-linecap:round;stroke-linejoin:round;stroke-miterlimit:4;stroke-dasharray:none;stroke-opacity:1" cx="72.99" cy="219.16" r="10.927"/></g><path style="opacity:1;fill:#5e2f20;fill-opacity:1;stroke:none;stroke-width:.69376451;stroke-linecap:round;stroke-linejoin:round;stroke-miterlimit:4;stroke-dasharray:none;stroke-opacity:1" d="M168.476 50.649c-35.51 7.252-61.175 35-61.924 73.174 9.787 5.66 10.466 12.32 10.466 13.622 0 1.366 3.2 15.128 2.306 31.044 6.057 1.037 14.552 2.719 18.876 3.578 12.197 5.065 19.125 6.547 35.953 6.547 6.918 0 16.363-.216 26.022-.64-15.797-1.843-31.96-2.958-46.001-8.312 4.747-14.615-3.453-26.94-27.456-61.951-3.356-27.886 20.502-43.199 41.758-57.062"/><path style="opacity:1;fill:#dd9a80;fill-opacity:1;stroke:none;stroke-width:2.62210202;stroke-linecap:round;stroke-linejoin:round;stroke-miterlimit:4;stroke-dasharray:none;stroke-opacity:1" d="M481.004 410.117c-19.6 7.915-38.987 16.929-58.934 26.33l5.785 35.545s-5.607 1.762-13.035 3.994c25.471 19.267 27.453 39.171 27.453 43.49 0 4.913 10.936 52.227 9.092 108.608 16.184 2.93 30.786 5.786 43.059 8.223 1.094.454 2.21.888 3.322 1.328l-15.824-209.453c0-1.286 2.047-5.292 4.662-9.912-1.867-2.728-3.658-5.349-5.58-8.153M555.379 637l-56.96.904c12.553 4.913 26.145 8.878 40.548 12.04 5.446-3.848 10.929-8.212 16.412-12.944" transform="scale(.26458)"/><path style="fill:#462313;fill-opacity:1;stroke:none;stroke-width:.26458332px;stroke-linecap:butt;stroke-linejoin:miter;stroke-opacity:1" d="M128.591 110.446c-9.59 1.742-17.59 4.336-21.474 7.52 0 4.77-23.058 17.395-28.507 22.992 3.874 2.53 7.686 4.225 10.807 5.929-3.739 2.986-8.115 7.13-12.833 12.858 5.99.26 11.01.427 15.311.531-2.019 2.75-4.13 5.974-6.262 9.758 19.444.177 44.89 1.723 62.506 5.64 2.477-1.749 4.729-3.685 6.818-5.723q-.392-.142-.783-.289c4.618-14.219-3.063-26.332-25.583-59.216"/></g><g style="display:inline"><g transform="translate(-43.11 -14.024)scale(1.31105)"><circle style="opacity:1;fill:#1a1a1a;fill-opacity:1;stroke:none;stroke-width:.25672144;stroke-linecap:round;stroke-linejoin:round;stroke-miterlimit:4;stroke-dasharray:none;stroke-opacity:1" cx="156.43" cy="114.872" r="5.301"/><circle r="1.992" cy="112.887" cx="154.444" style="opacity:1;fill:#e9c6af;fill-opacity:1;stroke:none;stroke-width:.09645954;stroke-linecap:round;stroke-linejoin:round;stroke-miterlimit:4;stroke-dasharray:none;stroke-opacity:1"/></g><g transform="translate(15.461 -14.024)scale(1.31105)"><circle r="5.301" cy="114.872" cx="156.43" style="opacity:1;fill:#1a1a1a;fill-opacity:1;stroke:none;stroke-width:.25672144;stroke-linecap:round;stroke-linejoin:round;stroke-miterlimit:4;stroke-dasharray:none;stroke-opacity:1"/><circle style="opacity:1;fill:#e9c6af;fill-opacity:1;stroke:none;stroke-width:.09645954;stroke-linecap:round;stroke-linejoin:round;stroke-miterlimit:4;stroke-dasharray:none;stroke-opacity:1" cx="154.444" cy="112.887" r="1.992"/></g></g><g style="display:inline"><path style="color:#000;font-style:normal;font-variant:normal;font-weight:400;font-stretch:normal;font-size:medium;line-height:normal;font-family:sans-serif;font-variant-ligatures:normal;font-variant-position:normal;font-variant-caps:normal;font-variant-numeric:normal;font-variant-alternates:normal;font-feature-settings:normal;text-indent:0;text-align:start;text-decoration:none;text-decoration-line:none;text-decoration-style:solid;text-decoration-color:#000;letter-spacing:normal;word-spacing:normal;text-transform:none;writing-mode:lr-tb;direction:ltr;text-orientation:mixed;dominant-baseline:auto;baseline-shift:baseline;text-anchor:start;white-space:normal;shape-padding:0;clip-rule:nonzero;display:inline;overflow:visible;visibility:visible;opacity:1;isolation:auto;mix-blend-mode:normal;color-interpolation:sRGB;color-interpolation-filters:linearRGB;solid-color:#000;solid-opacity:1;vector-effect:none;fill:#000;fill-opacity:1;fill-rule:nonzero;stroke:none;stroke-width:3.46882272;stroke-linecap:round;stroke-linejoin:round;stroke-miterlimit:4;stroke-dasharray:none;stroke-dashoffset:0;stroke-opacity:1;color-rendering:auto;image-rendering:auto;shape-rendering:auto;text-rendering:auto" d="M194.27 137.526c-11.592.074-18.492 5.11-25.21 10.537 7.006-5.259 14.395-9.654 27.588-8.604 10.833 2.665 20.555 7.588 27.998 13.72a71 71 0 0 1 2.794 2.276q.584.51 1.161 1.017c.207.182.453.312.72.38 2.92.74 4.58 2.684 4.708 4.373.027.356.164.695.39.97 1.626 1.977 2.394 3.685 2.311 4.957-.074 1.15-.734 2.377-2.927 3.804-.68.667-1.55 1.321-2.651 1.962-21.68 12.607-41.115 11.234-64.122 1.325-1.166-.502-2.206-2.09-3.13-2.72 1.423 1.293 3.162 3.427 5.219 4.313 23.328 10.046 43.588 11.427 65.68-1.419 3.342-1.943 5.219-4.359 5.393-7.04.164-2.532-1.084-4.825-2.805-6.998-.518-3.16-3.19-5.691-6.76-6.744q-.454-.401-.918-.804l-.01-.008c-7.796-6.696-17.823-12.51-29.523-15.388a2 2 0 0 0-.276-.045c-1.852-.147-3.951.126-5.63.136"/><path d="M199.762 139.12c-19.268-1.534-27.606 6.012-37.666 15.77-3.456 8.493-1.869 16.465 7.2 20.37 23.008 9.91 42.95 10.265 64.631-2.342 9.386-5.458 2.554-11.893-5.357-18.78-7.615-6.54-17.412-12.215-28.808-15.018" style="opacity:1;fill:#e9c6af;fill-opacity:1;stroke:none;stroke-width:1.16047156;stroke-linecap:round;stroke-linejoin:round;stroke-miterlimit:4;stroke-dasharray:none;stroke-opacity:1"/><path d="m218.797 154.735 10.125.259c4.495.785 7.384 4.06 6.768 7.35-.65 3.477-3.666 5.67-6.753 7.004-1.46.63-3.292-2.206-5.23-2.22-1.772-.011-4.895 1.961-4.895 1.961-4.04 1.618-10.808-3.477-10.6-7.448.209-3.97 6.203-7.018 10.585-6.906" style="opacity:1;fill:#1a1a1a;fill-opacity:1;stroke:none;stroke-width:.72977954;stroke-linecap:round;stroke-linejoin:round;stroke-miterlimit:4;stroke-dasharray:none;stroke-opacity:1"/><path style="fill:#dd9a80;fill-opacity:1;stroke:none;stroke-width:.26458332px;stroke-linecap:butt;stroke-linejoin:miter;stroke-opacity:1" d="M191.423 139.045c-13.597.974-20.851 7.624-29.327 15.845-3.456 8.492-1.869 16.465 7.2 20.371 20.776 8.948 39.053 10.103 58.367.961-22.515 5.007-46.738-2.76-45.748-18.147.366-5.7.806-11.93 9.508-19.03"/></g><g transform="rotate(8.977 294.616 -250.052)" style="display:inline"/><g style="display:inline"><path style="color:#000;font-style:normal;font-variant:normal;font-weight:400;font-stretch:normal;font-size:medium;line-height:normal;font-family:sans-serif;font-variant-ligatures:normal;font-variant-position:normal;font-variant-caps:normal;font-variant-numeric:normal;font-variant-alternates:normal;font-feature-settings:normal;text-indent:0;text-align:start;text-decoration:none;text-decoration-line:none;text-decoration-style:solid;text-decoration-color:#000;letter-spacing:normal;word-spacing:normal;text-transform:none;writing-mode:lr-tb;direction:ltr;text-orientation:mixed;dominant-baseline:auto;baseline-shift:baseline;text-anchor:start;white-space:normal;shape-padding:0;clip-rule:nonzero;display:inline;overflow:visible;visibility:visible;opacity:1;isolation:auto;mix-blend-mode:normal;color-interpolation:sRGB;color-interpolation-filters:linearRGB;solid-color:#000;solid-opacity:1;vector-effect:none;fill:#000;fill-opacity:1;fill-rule:nonzero;stroke:none;stroke-width:3.46882248;stroke-linecap:butt;stroke-linejoin:miter;stroke-miterlimit:4;stroke-dasharray:none;stroke-dashoffset:0;stroke-opacity:1;color-rendering:auto;image-rendering:auto;shape-rendering:auto;text-rendering:auto" d="m320.6 10.387-.5 1.354c-2.283 6.183-5.905 11.942-6.11 22.161-.207 10.22 2.941 24.727 13.61 49.082l.31.709.735.243c12.64 4.167 23.43.74 32.414-5.326 8.983-6.067 16.384-14.716 22.932-21.301l1.016-1.022-.819-1.187c-13.703-19.854-29.578-38.848-62.166-44.468Zm2.194 3.94c29.924 5.599 44.548 22.659 57.714 41.585-6.422 6.55-13.359 14.399-21.39 19.823-8.261 5.579-17.431 8.545-28.661 5.097-10.282-23.633-13.188-37.53-13-46.86.176-8.747 2.98-13.7 5.337-19.645" transform="translate(-204.861)"/><path style="fill:#955c37;fill-opacity:1;stroke:none;stroke-width:1.74648964px;stroke-linecap:butt;stroke-linejoin:miter;stroke-opacity:1" d="M1215.979 46.645c-5.394 14.607-12.26 27.813-17.032 44.142l.344 4.649c-2.757 26.225 1.942 45.615 2.924 68.414l35.084 93.556 41.517 43.272 36.998 18.5c67.82-5.85 127.99-48.69 137.168-107.649-51.567-74.716-115.899-144-237.004-164.884" transform="translate(-204.861)scale(.26458)"/><path d="M341.552 75.41c-9.582-9.052-14.317-39.768-9.01-50.05 21.126 3.21 41.154 18.94 50.4 31.826-2.168 9.805-21.694 35.234-41.39 18.224" style="fill:#e9c6af;fill-opacity:1;stroke:none;stroke-width:.30464447px;stroke-linecap:butt;stroke-linejoin:miter;stroke-opacity:1" transform="translate(-204.861)"/><path style="fill:#5e2f20;fill-opacity:1;stroke:none;stroke-width:.99999994px;stroke-linecap:butt;stroke-linejoin:miter;stroke-opacity:1" d="M1200.207 86.656c-12.242 37.947-14.126 91.723 43.969 224.354 24.564 8.098 50.097 10.396 74.549 7.898-52.651-31.226-126.928-129.694-118.518-232.252" transform="translate(-204.861)scale(.26458)"/><path style="fill:#dd9a80;fill-opacity:1;stroke:none;stroke-width:.99999994px;stroke-linecap:butt;stroke-linejoin:miter;stroke-opacity:1" d="M1256.854 95.846c-3.387 6.562-5.687 15.332-7.004 25.53 74.018-15.203 161.368 78.43 182.591 106.356-.491 12.09-9.76 29.376-21.427 46.338 19.655-19.523 33.096-43.318 36.328-57.933-34.948-48.705-110.644-108.157-190.489-120.291" transform="translate(-204.861)scale(.26458)"/></g></svg>